#!OML:ASF E:/inclinewalkrobotboard/Project1/Captureday1/Session1/subject1.ASF
:FULLY-SPECIFIED
:DEGREES
126
root 0 0 0 -1.7427503925377232 -2.5567443540915713 -3.025514732413699
lowerback 10.034256002329776 0.7997719870657871 0.8706179393454636
upperback 0.0755881786904335 1.2280412435701433 1.2209826185464854
thorax -5.503867265666599 0.5842065574126989 0.5993173112618309
lowerneck -14.064804338771637 -2.8757225482170483 -1.0982089800579826
upperneck 16.54311182125505 -3.875165847654641 1.3500334309885793
head 7.658383655030273 -1.8273937422328692 0.2250286986700709
rclavicle -1.8804983925201308E-16 -9.040059918525512E-17
rhumerus -19.774566384267978 -7.435329914786933 -67.53163749038534
rradius 60.14973645060806
rwrist -7.958083673906429
rhand -13.412545832428174 -8.516678331417824
rfingers 7.125019999999866
rthumb 12.72050281577108 -37.76230626061639
lclavicle -8.092757217328945E-16 -3.8159544076118772E-16
lhumerus -39.62846169962461 0.2483605935741704 83.28454830053668
lradius 38.28753403057909
lwrist 2.6955198852383173
lhand -19.42019811493146 0.8112684233761023
lfingers 7.125019999999878
lthumb 6.799394823743876 30.31958462653237
rfemur -9.206686221053108 1.9946227430149186 14.09316108191903
rtibia 27.932869127826336
rfoot -1.2967028429004592 -3.2797988780395473
rtoes 3.404492941186977
lfemur 0.6890402979828991 -4.244398893981895 -20.14444783760325
ltibia 18.93201658532476
lfoot -18.521652367433298 4.660954818239702
ltoes -23.59921682651842
127
root 0 0 0 -1.9558987799632428 -0.9628303575642723 -0.42905456204312786
lowerback 10.047249073696621 -0.2624046226494521 -1.8618521837140727
upperback 0.1830681022740796 -0.499663460379449 1.189638916160367
thorax -5.416152326325055 -0.20606236542511558 2.3538036708746013
lowerneck -14.22534633729497 -2.608484886315101 -1.3466658581482907
upperneck 16.82233300959963 -3.397644282278084 1.1512460474460728
head 7.755781889702802 -1.6379536962405343 0.24938038420377528
rclavicle -2.0098267830835072E-16 -9.814305384852385E-17
rhumerus -19.94476919260629 -7.630610842488894 -67.7157523023873
rradius 59.568322055014335
rwrist -7.7456486762790435
rhand -13.492483829036836 -7.959269109165559
rfingers 7.125019999999869
rthumb 12.642406232142585 -37.21688288198571
lclavicle -7.73367976797901E-16 -3.684195966847498E-16
lhumerus -39.4020745797519 0.2208610392822985 83.26663215798841
lradius 38.017376596397185
lwrist 2.7940263170818405
lhand -19.642803289152987 1.4878510933318498
lfingers 7.125019999999882
lthumb 6.590036377772101 31.003797203521525
rfemur -9.735490125124205 1.8231942664837133 13.778998437482823
rtibia 28.66328553391017
rfoot -0.7738573490218599 -3.2796682535693717
rtoes 3.6050625544888386
lfemur 1.2282963955109798 -4.249679564013535 -20.579402313363424
ltibia 18.701646893961176
lfoot -18.43235446856962 4.41810002564468
ltoes -22.755148947620906
128
root 0 0 0 -2.124474830144483 -0.393342908095202 0.6056664830815834
lowerback 10.100460881779464 -0.6893109253047056 -2.8548018481901147
upperback 0.2573759174776867 -1.1849365953840532 1.225402273164145
thorax -5.356618308927716 -0.5182802889685517 3.0489807194519996
lowerneck -14.585383516634305 -2.5311348843219528 -1.5394762359187855
upperneck 17.211981323566153 -3.223986621739822 1.0108444463719137
head 7.945169669122231 -1.5736254093160418 0.24431587037253213
rclavicle -2.010166584807463E-16 -1.059509894823365E-16
rhumerus -19.995628150467848 -7.6787247592622325 -67.75626771182587
rradius 59.43736793845202
rwrist -7.688724767171636
rhand -13.508934697288911 -7.8357702188709855
rfingers 7.12501999999987
rthumb 12.626479354910161 -37.09617614187121
lclavicle -7.488955349669376E-16 -3.6979983794342714E-16
lhumerus -39.34862502441452 0.19897845513416068 83.2652827548548
lradius 37.99099761174434
lwrist 2.8185047473104277
lhand -19.6811489925505 1.6007916619889428
lfingers 7.125019999999882
lthumb 6.55412787358722 31.119337880221412
rfemur -10.098498582325636 1.6622862518371821 13.481153945547554
rtibia 29.326159833382555
rfoot -0.2405505838971025 -3.2287427136857207
rtoes 3.8531991816979914
lfemur 1.2656387896873378 -4.151582021648259 -20.79385306485559
ltibia 19.212456558699536
lfoot -17.98916464459431 3.994387742763983
ltoes -21.782227019926566
129
root 0 0 0 -2.204304110355665 -0.30490590306845067 0.8184112204907206
lowerback 10.139529760394929 -0.7842507159017524 -3.0110045662067497
upperback 0.29259319493948815 -1.3311724034865313 1.2609144512220074
thorax -5.330750086577207 -0.5835657386935916 3.1941224912529913
lowerneck -14.820972601071135 -2.5290653705979262 -1.6298998589912466
upperneck 17.47374280441393 -3.1934634178264614 0.9444213408727713
head 8.06352278183873 -1.565330670162204 0.23378183622516704
rclavicle -1.9006791064483727E-16 -1.0384062553123767E-16
rhumerus -19.921768092671563 -7.582961195639097 -67.65998036106049
rradius 59.73691776780174
rwrist -7.787728392861483
rhand -13.46458346313695 -8.131165846103865
rfingers 7.125019999999868
rthumb 12.66916261574531 -37.385673372391906
lclavicle -7.375063032068805E-16 -3.705721387806486E-16
lhumerus -39.38737918688027 0.185323307528477 83.27018696450274
lradius 38.08096978473193
lwrist 2.805272957070864
lhand -19.629617585168475 1.4396648650732384
lfingers 7.125019999999881
lthumb 6.603359203550827 30.954133118680897
rfemur -10.417663149899713 1.66962136852018 13.701885301477922
rtibia 30.039711178983637
rfoot -0.1488944144428901 -3.295749839531841
rtoes 4.046183197863488
lfemur 0.5893991595077921 -3.918432909490686 -20.680818801601024
ltibia 20.712030612895564
lfoot -17.071271834747158 3.34443508211682
ltoes -20.688099656858444
130
root 0 0 0 -2.269716359143967 -0.3135601172906364 0.8597791287062182
lowerback 10.170500180596026 -0.8162963519077115 -2.9928348594139127
upperback 0.32084185836854456 -1.373192553595647 1.3008809312749767
thorax -5.311175743697701 -0.6012070705890816 3.2308161330025893
lowerneck -15.045613970380685 -2.539762061063844 -1.7005273873288358
upperneck 17.74240850890581 -3.1856243691619923 0.883903944582721
head 8.173018247342391 -1.5669976446387408 0.21930302004964228
rclavicle -1.8217802833539472E-16 -1.0044427474759166E-16
rhumerus -19.820102672923255 -7.471038288878482 -67.54123892895291
rradius 60.0904707165292
rwrist -7.913820910311472
rhand -13.415705117336374 -8.464813590764425
rfingers 7.125019999999866
rthumb 12.716229688166582 -37.70992110779371
lclavicle -7.32208704533604E-16 -3.616818515638563E-16
lhumerus -39.30872134164273 0.1730128495998147 83.26149374118634
lradius 37.991030362936634
lwrist 2.8427378156255028
lhand -19.708819054631963 1.6798375926886298
lfingers 7.125019999999882
lthumb 6.528230462088745 31.19642682594754
rfemur -10.876415617887696 1.8500566082950372 14.596781286744235
rtibia 31.266005104530635
rfoot -0.463544817840994 -3.5269433247032564
rtoes 4.2687774818488595
lfemur -1.2483325098291926 -3.4851366686745733 -20.073854440876705
ltibia 23.65651821313611
lfoot -15.389890211048264 2.3494456122049847
ltoes -19.24330255143127
